# xmcd
#
# Track frame offsets: 
#        150
#        34675
#        66233
#        97590
#        134895
#        153815
#        172128
#
# Disc length: 2371 seconds
#
# Revision: 5
# Processed by: cddbd v1.5.2PL0 Copyright (c) Steve Scherf et al.
# Submitted via: ExactAudioCopy v0.95b4
#
DISCID=58094107
DTITLE=Bill Evans Trio - The Complete Live At The Village Vanguard 196
DTITLE=1 [CD3]
DYEAR=1961
DGENRE=Jazz
TTITLE0=Detour Ahead  [Take2]
TTITLE1=Gloria's Step  [Take3]
TTITLE2=Waltz For Debby  [Take2]
TTITLE3=All Of You  [Take3]
TTITLE4=Jade Visions  [Take1]
TTITLE5=Jade Visions  [Take2]
TTITLE6=A Few Final Bars
EXTD=
EXTT0=
EXTT1=
EXTT2=
EXTT3=
EXTT4=
EXTT5=
EXTT6=
PLAYORDER=
